<svg width="1389" height="700" viewBox="0 0 1389 700" fill="none" xmlns="http://www.w3.org/2000/svg">
<g opacity="0.07">
<path d="M529.596 667.119C411.397 1245.69 869.773 1889.51 1553.65 2105.01C2237.52 2320.51 2887.6 2025.97 3005.8 1447.4C3124 868.831 2665.62 225.009 1981.75 9.51142C1297.87 -205.986 647.794 88.5477 529.596 667.119Z" stroke="white"/>
<path d="M425.277 634.247C307.078 1212.82 765.454 1856.64 1449.33 2072.14C2133.2 2287.64 2783.28 1993.1 2901.48 1414.53C3019.68 835.959 2561.3 192.137 1877.43 -23.3608C1193.55 -238.859 543.475 55.6754 425.277 634.247Z" stroke="white"/>
<path d="M319.302 600.853C201.103 1179.42 659.479 1823.25 1343.35 2038.74C2027.23 2254.24 2677.31 1959.71 2795.5 1381.14C2913.7 802.565 2455.33 158.743 1771.45 -56.7547C1087.58 -272.253 437.501 22.2815 319.302 600.853Z" stroke="white"/>
<path d="M214.983 567.981C96.7845 1146.55 555.16 1790.37 1239.04 2005.87C1922.91 2221.37 2572.99 1926.84 2691.19 1348.26C2809.38 769.693 2351.01 125.871 1667.13 -89.6265C983.258 -305.124 333.182 -10.5903 214.983 567.981Z" stroke="white"/>
</g>
</svg>
