<svg width="1002" height="656" viewBox="0 0 1002 656" fill="none" xmlns="http://www.w3.org/2000/svg">
<g opacity="0.07">
<path d="M666.876 55.2932C692.484 537.072 1202.87 944.121 1807.09 964.249C2411.31 984.376 2880.15 609.948 2854.55 128.169C2828.94 -353.61 2318.55 -760.659 1714.33 -780.787C1110.12 -800.914 641.268 -426.486 666.876 55.2932Z" stroke="white"/>
<path d="M574.706 52.2226C600.314 534.002 1110.7 941.05 1714.92 961.178C2319.14 981.306 2787.98 606.878 2762.38 125.099C2736.77 -356.681 2226.38 -763.729 1622.16 -783.857C1017.95 -803.985 549.098 -429.557 574.706 52.2226Z" stroke="white"/>
<path d="M481.073 49.1035C506.681 530.883 1017.07 937.931 1621.29 958.059C2225.5 978.187 2694.35 603.759 2668.74 121.979C2643.14 -359.8 2132.75 -766.848 1528.53 -786.976C924.312 -807.104 455.465 -432.676 481.073 49.1035Z" stroke="white"/>
<path d="M388.903 46.0334C414.511 527.813 924.896 934.861 1529.12 954.989C2133.33 975.117 2602.18 600.689 2576.57 118.909C2550.97 -362.87 2040.58 -769.918 1436.36 -790.046C832.142 -810.174 363.295 -435.746 388.903 46.0334Z" stroke="white"/>
</g>
</svg>
